<?xml version="1.0" encoding="UTF-8"?>
<svg id="Layer_2" data-name="Layer 2" xmlns="http://www.w3.org/2000/svg" viewBox="0 0 221.82 36.45">
  <defs>
    <style>
      .cls-1 {
        fill: #0F203C;
      }

      .cls-1, .cls-2 {
        stroke-width: 0px;
      }

      .cls-2 {
        fill: #97c147;
      }
    </style>
  </defs>
  <g id="Layer_2-2" data-name="Layer 2">
    <g>
      <path class="cls-2" d="M126.63.09h-6.7l-1.69,9.21c.11-.48.17-.78.18-.86h.09c.05,9.75.06,14.75.03,15h-2.09c-.45,1.66-.91,3.65-1.37,5.98v.09s3.5,0,3.5,0c-.03,2.41-.01,3.61.05,3.61-.09,2.09-.05,3.13.1,3.13h9.68c-.93-21.04-1.46-32.09-1.59-33.13.02-2.03-.05-3.04-.21-3.04"/>
      <path class="cls-2" d="M167.04,0h-13.57c-2.79,10.79-4.2,16.3-4.23,16.52h-.09c-.32-8.51-.56-14.02-.71-16.52h-13.57l-4.28,36.27h9.21l2.71-22.97h.1l.89,22.97h6.65c4.08-15.22,6.13-22.97,6.16-23.26h.1l-2.75,23.26h9.3L167.2.19c.01-.11-.04-.17-.17-.19"/>
      <path class="cls-2" d="M190.17.09h-15.09c-6.34,23.83-9.54,35.89-9.59,36.17h9.87c4.35-18.07,6.55-27.34,6.61-27.82h.09c.05,9.75.06,14.75.03,15h-2.09c-.45,1.66-.91,3.65-1.37,5.98v.09s3.5,0,3.5,0c-.03,2.41-.01,3.61.05,3.61-.09,2.09-.05,3.13.1,3.13h9.68c-.93-21.04-1.46-32.09-1.59-33.13.02-2.03-.05-3.04-.21-3.04"/>
      <path class="cls-2" d="M221.65,0h-8.64l-1.91,16.14h-.09l-3.79-16.14h-8.83l-4.28,36.27h8.83l1.88-15.95h.09l3.34,15.95h9.3L221.81.19c.01-.11-.04-.17-.17-.19"/>
      <path class="cls-1" d="M111.54.05c-6.34,23.83-9.54,35.89-9.59,36.17h9.87c3.69-15.31,5.82-24.28,6.43-26.96L119.93.05h-8.4Z"/>
      <path class="cls-1" d="M21.29.13l-5.58,24.27s-1.12,5.23-4.35,5.23c-3.63,0-1.87-5.23-1.87-5.23l3.51-15.42h3.16S17.97.12,17.97.12h-2.96s0,0,0,0H5.89S.33,24.57.33,24.57c-1.52,6.88,2.33,11.6,8.99,11.71.51.06.86,0,1.56,0,6.77-.12,12.7-4.78,14.22-11.66L30.72.12h-9.43Z"/>
      <path class="cls-1" d="M91.32,22.79l-.17,4.42c-.04,1.07-.94,1.91-2.01,1.87-1.07-.04-1.91-.94-1.86-2.01l.17-4.42c-1.13-.72-1.87-1.98-1.81-3.42.08-2.14,1.89-3.81,4.03-3.73,2.14.08,3.81,1.88,3.73,4.03-.05,1.43-.89,2.64-2.07,3.27M92.49,8.08c-7.2,0-12.96,4.95-15.03,12.46-1,3.75-1.59,6.44-7.7,6.45l-26.45.08h-.03c-4.96.01-3.93-3.13-3.17-6.6L45.16.12h-9.43s-5.57,24.78-5.57,24.78c-1.46,6.58,1.52,10.84,8.91,11.54h29.92c3.96-.2,7.42-1.34,9.58-4.2,1.18,3.01,4.08,4.21,7.65,4.2,7.9,0,13.51-5.58,15.41-14.16,1.89-8.53-1.29-14.21-9.13-14.21"/>
    </g>
  </g>
</svg>